<svg xmlns="http://www.w3.org/2000/svg" width="30" height="30" fill="none" viewBox="0 0 30 30"><g clip-path="url(#a)"><path fill="#316DC2" d="M.918 8.8c-.851.607-1.35 1.892-.41 3.428.942 1.537 14.385 11.906 14.878 12.194s.986.336 2.24-.672 11.74-8.884 12.01-9.121c.43-.377.538-1.296 0-1.729 0 0-12.701 9.505-13.117 9.89s-1.063-.24-.941-1.056.211-.913 1.825-2.16a2566 2566 0 0 1 11.174-8.488c.47-.347.481-.96-.288-1.503A5195 5195 0 0 1 15.267.317c-.388-.288-.925-.55-1.731.026C12.729.919 2.483 7.686.918 8.8"/><path fill="#316DC2" d="M15.386 25.433c-.323-.189-6.222-4.718-10.506-8.244v7.352c-.003 5.367 15.117 8.235 20.127 1.637V19.15c-3.078 2.325-6.677 5.045-7.38 5.61-1.255 1.008-1.748.96-2.24.672"/><path fill="#98B8E6" d="M21.784 17.372s2.249 1.13 2.408 5.678l-1.089-.3-.871 1.851c-.369-4.98-2.376-5.703-2.376-5.703z"/></g><defs><clipPath id="a"><path fill="#fff" d="M0 0h30v30H0z"/></clipPath></defs></svg>